# xmcd CD database file
#
# Track frame offsets:
#	150
#	12600
#	29625
#	50700
#
# Disc length: 730 seconds
#
# Revision: 1
# Processed by: cddbd v1.5.2PL0 Copyright (c) Steve Scherf et al.
# Submitted via: CDex 1.70beta2
#
DISCID=3502d804
DTITLE=ハンバートハンバートとマチルダロドリゲス - E.A.D.
DYEAR=2003
DGENRE=Rock
TTITLE0=E.A.D.
TTITLE1=幸福論Z
TTITLE2=夢の中～No Woman No Cry～
TTITLE3=窓(DEMO)
EXTD=YEAR: 2003
EXTT0=
EXTT1=
EXTT2=
EXTT3=
PLAYORDER=
